<?xml version="1.0" encoding="iso-8859-1"?>
<!-- Generator: Adobe Illustrator 20.1.0, SVG Export Plug-In . SVG Version: 6.00 Build 0)  -->
<svg xmlns="http://www.w3.org/2000/svg" xmlns:xlink="http://www.w3.org/1999/xlink" version="1.1" id="&#1057;&#1083;&#1086;&#1081;_1" x="0px" y="0px" viewBox="0 0 64 64" style="enable-background:new 0 0 64 64;" xml:space="preserve">
<linearGradient id="SVGID_1__52569" gradientUnits="userSpaceOnUse" x1="43.5" y1="19.0002" x2="43.5" y2="40.6673" spreadMethod="reflect">
	<stop offset="0" style="stop-color:#6DC7FF"/>
	<stop offset="1" style="stop-color:#E6ABFF"/>
</linearGradient>
<path style="fill:url(#SVGID_1__52569);" d="M49,44h-2V24.654l-6.994-3.111L40,40h-2V21.546c0-0.681,0.341-1.31,0.912-1.681  c0.569-0.37,1.282-0.429,1.906-0.151l6.991,3.107c0.723,0.321,1.19,1.04,1.19,1.832V44z"/>
<linearGradient id="SVGID_2__52569" gradientUnits="userSpaceOnUse" x1="20.5" y1="18.8336" x2="20.5" y2="34.8761" spreadMethod="reflect">
	<stop offset="0" style="stop-color:#6DC7FF"/>
	<stop offset="1" style="stop-color:#E6ABFF"/>
</linearGradient>
<path style="fill:url(#SVGID_2__52569);" d="M15.999,35.448c-0.378,0-0.753-0.107-1.082-0.319C14.343,34.759,14,34.13,14,33.447v-7.802  c0-0.781,0.46-1.496,1.172-1.821l9-4.09c0.621-0.284,1.335-0.231,1.91,0.138C26.657,20.241,27,20.87,27,21.554v7.803  c0,0.782-0.461,1.497-1.174,1.821l-8.998,4.09C16.563,35.389,16.28,35.448,15.999,35.448z M25,21.554l-9,4.09v7.803l8.999-4.09  l0.414,0.91L25,29.357V21.554z"/>
<linearGradient id="SVGID_3__52569" gradientUnits="userSpaceOnUse" x1="44" y1="31" x2="44" y2="36.6691" spreadMethod="reflect">
	<stop offset="0" style="stop-color:#6DC7FF"/>
	<stop offset="1" style="stop-color:#E6ABFF"/>
</linearGradient>
<rect x="43" y="32" style="fill:url(#SVGID_3__52569);" width="2" height="4"/>
<linearGradient id="SVGID_4__52569" gradientUnits="userSpaceOnUse" x1="32" y1="5.1669" x2="32" y2="58.8289" spreadMethod="reflect">
	<stop offset="0" style="stop-color:#1A6DFF"/>
	<stop offset="1" style="stop-color:#C822FF"/>
</linearGradient>
<path style="fill:url(#SVGID_4__52569);" d="M54.201,15.449L33.2,6.253c-0.763-0.336-1.638-0.337-2.398-0.001L9.799,15.449  C8.706,15.929,8,17.012,8,18.21v27.581c0,1.198,0.706,2.281,1.799,2.761l21.003,9.197c0.381,0.167,0.789,0.25,1.198,0.25  s0.817-0.083,1.198-0.25l21.003-9.197C55.294,48.073,56,46.99,56,45.791V18.21C56,17.012,55.294,15.929,54.201,15.449z   M53.398,17.281C53.764,17.442,54,17.806,54,18.21v27.265L33.195,36.43c-0.063-0.027-0.131-0.039-0.195-0.062V8.349L53.398,17.281z   M10.602,17.281L31,8.349v28.019c-0.064,0.023-0.132,0.034-0.195,0.062L10,45.475V18.21C10,17.806,10.236,17.442,10.602,17.281z   M32.396,55.917c-0.252,0.111-0.539,0.111-0.791,0l-20.23-8.859l20.228-8.794c0.254-0.109,0.543-0.109,0.797,0l20.228,8.794  L32.396,55.917z"/>
<linearGradient id="SVGID_5__52569" gradientUnits="userSpaceOnUse" x1="32" y1="5.1669" x2="32" y2="58.8289" spreadMethod="reflect">
	<stop offset="0" style="stop-color:#1A6DFF"/>
	<stop offset="1" style="stop-color:#C822FF"/>
</linearGradient>
<path style="fill:url(#SVGID_5__52569);" d="M32,40.917L17.4,47L32,53.083L46.6,47L32,40.917z M22.6,47l9.4-3.917L41.4,47L32,50.917  L22.6,47z"/>
</svg>
